<mxfile host="app.diagrams.net" modified="2020-06-09T12:53:33.157Z" agent="5.0 (Windows NT 10.0; Win64; x64) AppleWebKit/537.36 (KHTML, like Gecko) Chrome/83.0.4103.97 Safari/537.36" etag="jh6V37v-BgQKDomN3bAD" version="13.1.14" type="github">
  <diagram id="b7CmRXWE2GOlUavSTZUe" name="Page-1">
    <mxGraphModel dx="1182" dy="732" grid="1" gridSize="10" guides="1" tooltips="1" connect="1" arrows="1" fold="1" page="1" pageScale="1" pageWidth="827" pageHeight="1169" math="0" shadow="0">
      <root>
        <mxCell id="0" />
        <mxCell id="1" parent="0" />
        <mxCell id="aLQe0wNo5wLi3Sxk2y81-3" style="edgeStyle=orthogonalEdgeStyle;rounded=0;orthogonalLoop=1;jettySize=auto;html=1;entryX=0.5;entryY=0;entryDx=0;entryDy=0;strokeWidth=1;endArrow=block;endFill=0;strokeColor=#000000;" parent="1" source="aLQe0wNo5wLi3Sxk2y81-1" target="aLQe0wNo5wLi3Sxk2y81-2" edge="1">
          <mxGeometry relative="1" as="geometry" />
        </mxCell>
        <mxCell id="aLQe0wNo5wLi3Sxk2y81-1" value="Power On Reset" style="rounded=1;whiteSpace=wrap;html=1;fillColor=#f8cecc;strokeColor=#b85450;" parent="1" vertex="1">
          <mxGeometry x="259" y="97" width="120" height="50" as="geometry" />
        </mxCell>
        <mxCell id="aLQe0wNo5wLi3Sxk2y81-4" value="No" style="edgeStyle=orthogonalEdgeStyle;rounded=0;orthogonalLoop=1;jettySize=auto;html=1;exitX=1;exitY=0.5;exitDx=0;exitDy=0;endArrow=block;endFill=0;strokeColor=#000000;strokeWidth=1;entryX=0.5;entryY=0;entryDx=0;entryDy=0;" parent="1" source="aLQe0wNo5wLi3Sxk2y81-2" target="aLQe0wNo5wLi3Sxk2y81-6" edge="1">
          <mxGeometry x="-0.2593" y="15" relative="1" as="geometry">
            <mxPoint x="559" y="287" as="targetPoint" />
            <mxPoint as="offset" />
          </mxGeometry>
        </mxCell>
        <mxCell id="aLQe0wNo5wLi3Sxk2y81-2" value="Does&lt;br&gt;&lt;font color=&quot;#0000ff&quot;&gt;&lt;b&gt;fw-latest.hex&lt;/b&gt;&lt;/font&gt;&lt;br&gt;exist in FS?" style="rhombus;whiteSpace=wrap;html=1;" parent="1" vertex="1">
          <mxGeometry x="239" y="197" width="160" height="90" as="geometry" />
        </mxCell>
        <mxCell id="aLQe0wNo5wLi3Sxk2y81-5" value="Yes" style="edgeStyle=orthogonalEdgeStyle;rounded=0;orthogonalLoop=1;jettySize=auto;html=1;exitX=0.5;exitY=1;exitDx=0;exitDy=0;endArrow=block;endFill=0;strokeColor=#000000;strokeWidth=1;entryX=0.5;entryY=0;entryDx=0;entryDy=0;" parent="1" source="aLQe0wNo5wLi3Sxk2y81-2" target="CXJbbaDLJKEDGF4cZTQp-16" edge="1">
          <mxGeometry x="-0.6168" y="20" relative="1" as="geometry">
            <mxPoint x="359" y="647" as="targetPoint" />
            <mxPoint x="239" y="327" as="sourcePoint" />
            <mxPoint as="offset" />
          </mxGeometry>
        </mxCell>
        <mxCell id="aLQe0wNo5wLi3Sxk2y81-8" style="edgeStyle=orthogonalEdgeStyle;rounded=0;orthogonalLoop=1;jettySize=auto;html=1;exitX=0.5;exitY=1;exitDx=0;exitDy=0;entryX=0.5;entryY=0;entryDx=0;entryDy=0;endArrow=block;endFill=0;strokeColor=#000000;strokeWidth=1;" parent="1" source="aLQe0wNo5wLi3Sxk2y81-6" target="aLQe0wNo5wLi3Sxk2y81-7" edge="1">
          <mxGeometry relative="1" as="geometry" />
        </mxCell>
        <mxCell id="aLQe0wNo5wLi3Sxk2y81-6" value="Read&lt;br&gt;&lt;b&gt;&lt;font color=&quot;#0000ff&quot;&gt;fw-onboard.md&lt;/font&gt;&lt;/b&gt;&lt;br&gt;-&amp;gt; fw_onboard_ver" style="rounded=0;whiteSpace=wrap;html=1;" parent="1" vertex="1">
          <mxGeometry x="469" y="287" width="120" height="60" as="geometry" />
        </mxCell>
        <mxCell id="aLQe0wNo5wLi3Sxk2y81-16" style="edgeStyle=orthogonalEdgeStyle;rounded=0;orthogonalLoop=1;jettySize=auto;html=1;exitX=0.5;exitY=1;exitDx=0;exitDy=0;entryX=0.5;entryY=0;entryDx=0;entryDy=0;endArrow=block;endFill=0;strokeColor=#000000;strokeWidth=1;" parent="1" source="aLQe0wNo5wLi3Sxk2y81-7" target="aLQe0wNo5wLi3Sxk2y81-9" edge="1">
          <mxGeometry relative="1" as="geometry" />
        </mxCell>
        <mxCell id="aLQe0wNo5wLi3Sxk2y81-7" value="Read&lt;br&gt;&lt;b&gt;&lt;font color=&quot;#ff0000&quot;&gt;fw-latest.md&lt;/font&gt;&lt;/b&gt;&lt;br&gt;-&amp;gt; fw_latest_ver" style="rounded=0;whiteSpace=wrap;html=1;" parent="1" vertex="1">
          <mxGeometry x="469" y="387" width="120" height="60" as="geometry" />
        </mxCell>
        <mxCell id="aLQe0wNo5wLi3Sxk2y81-17" value="No" style="edgeStyle=orthogonalEdgeStyle;rounded=0;orthogonalLoop=1;jettySize=auto;html=1;exitX=0.5;exitY=1;exitDx=0;exitDy=0;endArrow=block;endFill=0;strokeColor=#000000;strokeWidth=1;entryX=0.5;entryY=0;entryDx=0;entryDy=0;" parent="1" source="aLQe0wNo5wLi3Sxk2y81-9" target="CXJbbaDLJKEDGF4cZTQp-2" edge="1">
          <mxGeometry y="20" relative="1" as="geometry">
            <mxPoint as="offset" />
            <mxPoint x="439" y="591" as="targetPoint" />
          </mxGeometry>
        </mxCell>
        <mxCell id="aLQe0wNo5wLi3Sxk2y81-9" value="fw_onboard_ver&amp;nbsp;=&lt;br&gt;fw_latest_ver" style="rhombus;whiteSpace=wrap;html=1;" parent="1" vertex="1">
          <mxGeometry x="446.5" y="487" width="165" height="90" as="geometry" />
        </mxCell>
        <mxCell id="aLQe0wNo5wLi3Sxk2y81-11" value="Yes" style="edgeStyle=orthogonalEdgeStyle;rounded=0;orthogonalLoop=1;jettySize=auto;html=1;endArrow=block;endFill=0;strokeColor=#000000;strokeWidth=1;exitX=1;exitY=0.5;exitDx=0;exitDy=0;entryX=0;entryY=0.5;entryDx=0;entryDy=0;" parent="1" source="aLQe0wNo5wLi3Sxk2y81-9" target="aLQe0wNo5wLi3Sxk2y81-12" edge="1">
          <mxGeometry x="-0.0323" y="15" relative="1" as="geometry">
            <mxPoint x="539" y="607" as="sourcePoint" />
            <mxPoint x="659" y="532" as="targetPoint" />
            <mxPoint x="1" as="offset" />
          </mxGeometry>
        </mxCell>
        <mxCell id="aLQe0wNo5wLi3Sxk2y81-12" value="Firmware update&lt;br&gt;not needed" style="rounded=1;whiteSpace=wrap;html=1;fillColor=#d5e8d4;strokeColor=#82b366;" parent="1" vertex="1">
          <mxGeometry x="659" y="507" width="120" height="50" as="geometry" />
        </mxCell>
        <mxCell id="aLQe0wNo5wLi3Sxk2y81-19" style="edgeStyle=orthogonalEdgeStyle;rounded=0;orthogonalLoop=1;jettySize=auto;html=1;exitX=0.5;exitY=1;exitDx=0;exitDy=0;entryX=0.5;entryY=0;entryDx=0;entryDy=0;endArrow=block;endFill=0;strokeColor=#000000;strokeWidth=1;" parent="1" source="aLQe0wNo5wLi3Sxk2y81-13" target="aLQe0wNo5wLi3Sxk2y81-18" edge="1">
          <mxGeometry relative="1" as="geometry" />
        </mxCell>
        <mxCell id="aLQe0wNo5wLi3Sxk2y81-13" value="Scan TWI bus" style="rounded=0;whiteSpace=wrap;html=1;" parent="1" vertex="1">
          <mxGeometry x="469" y="1087" width="120" height="60" as="geometry" />
        </mxCell>
        <mxCell id="aLQe0wNo5wLi3Sxk2y81-21" value="No" style="edgeStyle=orthogonalEdgeStyle;rounded=0;orthogonalLoop=1;jettySize=auto;html=1;exitX=1;exitY=0.5;exitDx=0;exitDy=0;entryX=0;entryY=0.5;entryDx=0;entryDy=0;endArrow=block;endFill=0;strokeColor=#000000;strokeWidth=1;" parent="1" source="aLQe0wNo5wLi3Sxk2y81-18" target="DqUX-duL37DNaFb8Gwn0-20" edge="1">
          <mxGeometry x="-0.2632" y="15" relative="1" as="geometry">
            <mxPoint x="1" as="offset" />
            <mxPoint x="659" y="1232" as="targetPoint" />
          </mxGeometry>
        </mxCell>
        <mxCell id="aLQe0wNo5wLi3Sxk2y81-23" value="Yes" style="edgeStyle=orthogonalEdgeStyle;rounded=0;orthogonalLoop=1;jettySize=auto;html=1;exitX=0.5;exitY=1;exitDx=0;exitDy=0;entryX=0.5;entryY=0;entryDx=0;entryDy=0;endArrow=block;endFill=0;strokeColor=#000000;strokeWidth=1;" parent="1" source="aLQe0wNo5wLi3Sxk2y81-18" target="aLQe0wNo5wLi3Sxk2y81-22" edge="1">
          <mxGeometry y="20" relative="1" as="geometry">
            <mxPoint as="offset" />
          </mxGeometry>
        </mxCell>
        <mxCell id="aLQe0wNo5wLi3Sxk2y81-18" value="TWI device&lt;br&gt;detected?" style="rhombus;whiteSpace=wrap;html=1;" parent="1" vertex="1">
          <mxGeometry x="446.5" y="1187" width="165" height="90" as="geometry" />
        </mxCell>
        <mxCell id="aLQe0wNo5wLi3Sxk2y81-26" value="Yes" style="edgeStyle=orthogonalEdgeStyle;rounded=0;orthogonalLoop=1;jettySize=auto;html=1;exitX=0.5;exitY=1;exitDx=0;exitDy=0;entryX=0.5;entryY=0;entryDx=0;entryDy=0;endArrow=block;endFill=0;strokeColor=#000000;strokeWidth=1;" parent="1" source="aLQe0wNo5wLi3Sxk2y81-22" target="aLQe0wNo5wLi3Sxk2y81-30" edge="1">
          <mxGeometry y="20" relative="1" as="geometry">
            <mxPoint x="529" y="1447" as="targetPoint" />
            <mxPoint as="offset" />
          </mxGeometry>
        </mxCell>
        <mxCell id="aLQe0wNo5wLi3Sxk2y81-22" value="Bootloader&lt;br&gt;TWI address?" style="rhombus;whiteSpace=wrap;html=1;" parent="1" vertex="1">
          <mxGeometry x="446.5" y="1317" width="165" height="90" as="geometry" />
        </mxCell>
        <mxCell id="aLQe0wNo5wLi3Sxk2y81-27" value="No" style="edgeStyle=orthogonalEdgeStyle;rounded=0;orthogonalLoop=1;jettySize=auto;html=1;entryX=0;entryY=0.5;entryDx=0;entryDy=0;endArrow=block;endFill=0;strokeColor=#000000;strokeWidth=1;exitX=1;exitY=0.5;exitDx=0;exitDy=0;" parent="1" source="aLQe0wNo5wLi3Sxk2y81-22" target="aLQe0wNo5wLi3Sxk2y81-38" edge="1">
          <mxGeometry x="-0.2632" y="15" relative="1" as="geometry">
            <mxPoint x="629" y="1417" as="sourcePoint" />
            <mxPoint x="1" as="offset" />
            <mxPoint x="659" y="1362" as="targetPoint" />
          </mxGeometry>
        </mxCell>
        <mxCell id="aLQe0wNo5wLi3Sxk2y81-33" style="edgeStyle=orthogonalEdgeStyle;rounded=0;orthogonalLoop=1;jettySize=auto;html=1;exitX=0.5;exitY=1;exitDx=0;exitDy=0;entryX=0.5;entryY=0;entryDx=0;entryDy=0;endArrow=block;endFill=0;strokeColor=#000000;strokeWidth=1;" parent="1" source="aLQe0wNo5wLi3Sxk2y81-30" target="aLQe0wNo5wLi3Sxk2y81-32" edge="1">
          <mxGeometry relative="1" as="geometry" />
        </mxCell>
        <mxCell id="aLQe0wNo5wLi3Sxk2y81-30" value="&lt;div&gt;&lt;span&gt;1.Initialize bootloader&lt;/span&gt;&lt;/div&gt;2.&lt;b&gt;Upload firmware&lt;/b&gt;" style="rounded=0;whiteSpace=wrap;html=1;fillColor=#dae8fc;strokeColor=#6c8ebf;align=center;" parent="1" vertex="1">
          <mxGeometry x="469" y="1447" width="120" height="60" as="geometry" />
        </mxCell>
        <mxCell id="aLQe0wNo5wLi3Sxk2y81-37" style="edgeStyle=orthogonalEdgeStyle;rounded=0;orthogonalLoop=1;jettySize=auto;html=1;exitX=0.5;exitY=1;exitDx=0;exitDy=0;entryX=0.5;entryY=0;entryDx=0;entryDy=0;endArrow=block;endFill=0;strokeColor=#000000;strokeWidth=1;" parent="1" source="aLQe0wNo5wLi3Sxk2y81-32" target="aLQe0wNo5wLi3Sxk2y81-35" edge="1">
          <mxGeometry relative="1" as="geometry" />
        </mxCell>
        <mxCell id="aLQe0wNo5wLi3Sxk2y81-32" value="Start application&lt;br&gt;Verify app version" style="rounded=0;whiteSpace=wrap;html=1;" parent="1" vertex="1">
          <mxGeometry x="469" y="1547" width="120" height="60" as="geometry" />
        </mxCell>
        <mxCell id="aLQe0wNo5wLi3Sxk2y81-34" value="Yes" style="edgeStyle=orthogonalEdgeStyle;rounded=0;orthogonalLoop=1;jettySize=auto;html=1;exitX=0.5;exitY=1;exitDx=0;exitDy=0;endArrow=block;endFill=0;strokeColor=#000000;strokeWidth=1;entryX=0.5;entryY=0;entryDx=0;entryDy=0;" parent="1" source="aLQe0wNo5wLi3Sxk2y81-35" target="CXJbbaDLJKEDGF4cZTQp-1" edge="1">
          <mxGeometry y="20" relative="1" as="geometry">
            <mxPoint x="449" y="1741" as="targetPoint" />
            <mxPoint as="offset" />
          </mxGeometry>
        </mxCell>
        <mxCell id="aLQe0wNo5wLi3Sxk2y81-35" value="Application firmware&lt;br&gt;updated?" style="rhombus;whiteSpace=wrap;html=1;" parent="1" vertex="1">
          <mxGeometry x="446.5" y="1647" width="165" height="90" as="geometry" />
        </mxCell>
        <mxCell id="aLQe0wNo5wLi3Sxk2y81-36" value="No" style="edgeStyle=orthogonalEdgeStyle;rounded=0;orthogonalLoop=1;jettySize=auto;html=1;entryX=0;entryY=0.5;entryDx=0;entryDy=0;endArrow=block;endFill=0;strokeColor=#000000;strokeWidth=1;exitX=1;exitY=0.5;exitDx=0;exitDy=0;" parent="1" source="aLQe0wNo5wLi3Sxk2y81-35" target="DqUX-duL37DNaFb8Gwn0-24" edge="1">
          <mxGeometry x="-0.2632" y="15" relative="1" as="geometry">
            <mxPoint x="629" y="1747" as="sourcePoint" />
            <mxPoint x="1" as="offset" />
            <mxPoint x="659" y="1692" as="targetPoint" />
          </mxGeometry>
        </mxCell>
        <mxCell id="aLQe0wNo5wLi3Sxk2y81-39" style="edgeStyle=orthogonalEdgeStyle;rounded=0;orthogonalLoop=1;jettySize=auto;html=1;exitX=0.5;exitY=1;exitDx=0;exitDy=0;endArrow=block;endFill=0;strokeColor=#000000;strokeWidth=1;entryX=1;entryY=0.5;entryDx=0;entryDy=0;" parent="1" source="aLQe0wNo5wLi3Sxk2y81-38" target="aLQe0wNo5wLi3Sxk2y81-30" edge="1">
          <mxGeometry relative="1" as="geometry">
            <mxPoint x="719" y="1452" as="targetPoint" />
          </mxGeometry>
        </mxCell>
        <mxCell id="aLQe0wNo5wLi3Sxk2y81-38" value="Reset ATtiny85 to&lt;br&gt;stop application and&lt;br&gt;start bootloader&lt;br&gt;&lt;div&gt;&lt;/div&gt;" style="rounded=0;whiteSpace=wrap;html=1;align=center;fillColor=#ffe6cc;strokeColor=#d79b00;" parent="1" vertex="1">
          <mxGeometry x="659" y="1332" width="120" height="60" as="geometry" />
        </mxCell>
        <mxCell id="aLQe0wNo5wLi3Sxk2y81-41" value="End update&lt;br&gt;process" style="rounded=1;whiteSpace=wrap;html=1;fillColor=#d5e8d4;strokeColor=#82b366;" parent="1" vertex="1">
          <mxGeometry x="469" y="1888" width="120" height="50" as="geometry" />
        </mxCell>
        <mxCell id="CXJbbaDLJKEDGF4cZTQp-1" value="Rename&lt;br&gt;&lt;b&gt;&lt;font color=&quot;#0000ff&quot;&gt;fw-latest.hex&lt;/font&gt;&lt;/b&gt; -&amp;gt;&lt;br&gt;&lt;b&gt;&lt;font color=&quot;#0000ff&quot;&gt;fw-onboard.hex&lt;/font&gt;&lt;/b&gt;" style="rounded=0;whiteSpace=wrap;html=1;" parent="1" vertex="1">
          <mxGeometry x="469" y="1779" width="120" height="60" as="geometry" />
        </mxCell>
        <mxCell id="CXJbbaDLJKEDGF4cZTQp-2" value="Download&lt;br&gt;&lt;font color=&quot;#ff0000&quot;&gt;&lt;b&gt;firmware-x.x.x.hex&lt;/b&gt;&lt;/font&gt;&lt;br&gt;-&amp;gt; &lt;font&gt;fw_latest_dat&lt;/font&gt;" style="rounded=0;whiteSpace=wrap;html=1;" parent="1" vertex="1">
          <mxGeometry x="469" y="621" width="120" height="60" as="geometry" />
        </mxCell>
        <mxCell id="CXJbbaDLJKEDGF4cZTQp-3" value="Save&lt;br&gt;&lt;font&gt;fw_latest_dat -&amp;gt;&lt;br&gt;&lt;b&gt;&lt;font color=&quot;#0000ff&quot;&gt;fw-latest.hex&lt;/font&gt;&lt;/b&gt;&lt;br&gt;&lt;/font&gt;" style="rounded=0;whiteSpace=wrap;html=1;" parent="1" vertex="1">
          <mxGeometry x="469" y="981" width="120" height="60" as="geometry" />
        </mxCell>
        <mxCell id="CXJbbaDLJKEDGF4cZTQp-5" style="edgeStyle=orthogonalEdgeStyle;rounded=0;orthogonalLoop=1;jettySize=auto;html=1;endArrow=block;endFill=0;strokeColor=#000000;strokeWidth=1;exitX=0.5;exitY=1;exitDx=0;exitDy=0;entryX=0.5;entryY=0;entryDx=0;entryDy=0;" parent="1" source="CXJbbaDLJKEDGF4cZTQp-2" target="CXJbbaDLJKEDGF4cZTQp-6" edge="1">
          <mxGeometry relative="1" as="geometry">
            <mxPoint x="609" y="691" as="sourcePoint" />
            <mxPoint x="429" y="711" as="targetPoint" />
          </mxGeometry>
        </mxCell>
        <mxCell id="CXJbbaDLJKEDGF4cZTQp-6" value="Parse IHex&lt;br&gt;&lt;font&gt;fw_latest_dat &lt;br&gt;-&amp;gt; payload&lt;br&gt;&lt;/font&gt;" style="rounded=0;whiteSpace=wrap;html=1;" parent="1" vertex="1">
          <mxGeometry x="469" y="731" width="120" height="60" as="geometry" />
        </mxCell>
        <mxCell id="CXJbbaDLJKEDGF4cZTQp-7" value="IHex parse errors?" style="rhombus;whiteSpace=wrap;html=1;" parent="1" vertex="1">
          <mxGeometry x="446.5" y="841" width="165" height="90" as="geometry" />
        </mxCell>
        <mxCell id="CXJbbaDLJKEDGF4cZTQp-8" value="No" style="edgeStyle=orthogonalEdgeStyle;rounded=0;orthogonalLoop=1;jettySize=auto;html=1;endArrow=block;endFill=0;strokeColor=#000000;strokeWidth=1;entryX=0.5;entryY=0;entryDx=0;entryDy=0;exitX=0.5;exitY=1;exitDx=0;exitDy=0;" parent="1" source="CXJbbaDLJKEDGF4cZTQp-7" target="CXJbbaDLJKEDGF4cZTQp-3" edge="1">
          <mxGeometry y="20" relative="1" as="geometry">
            <mxPoint as="offset" />
            <mxPoint x="579" y="961" as="sourcePoint" />
            <mxPoint x="446.5" y="975" as="targetPoint" />
          </mxGeometry>
        </mxCell>
        <mxCell id="CXJbbaDLJKEDGF4cZTQp-9" style="edgeStyle=orthogonalEdgeStyle;rounded=0;orthogonalLoop=1;jettySize=auto;html=1;endArrow=block;endFill=0;strokeColor=#000000;strokeWidth=1;entryX=0.5;entryY=0;entryDx=0;entryDy=0;exitX=0.5;exitY=1;exitDx=0;exitDy=0;" parent="1" source="CXJbbaDLJKEDGF4cZTQp-6" target="CXJbbaDLJKEDGF4cZTQp-7" edge="1">
          <mxGeometry relative="1" as="geometry">
            <mxPoint x="599" y="811" as="sourcePoint" />
            <mxPoint x="539" y="741" as="targetPoint" />
          </mxGeometry>
        </mxCell>
        <mxCell id="CXJbbaDLJKEDGF4cZTQp-13" value="No" style="edgeStyle=orthogonalEdgeStyle;rounded=0;orthogonalLoop=1;jettySize=auto;html=1;endArrow=block;endFill=0;strokeColor=#000000;strokeWidth=1;entryX=0.5;entryY=0;entryDx=0;entryDy=0;exitX=0.5;exitY=1;exitDx=0;exitDy=0;" parent="1" source="CXJbbaDLJKEDGF4cZTQp-3" target="aLQe0wNo5wLi3Sxk2y81-13" edge="1">
          <mxGeometry y="20" relative="1" as="geometry">
            <mxPoint as="offset" />
            <mxPoint x="589" y="1071" as="sourcePoint" />
            <mxPoint x="539" y="991" as="targetPoint" />
          </mxGeometry>
        </mxCell>
        <mxCell id="CXJbbaDLJKEDGF4cZTQp-14" value="Yes" style="edgeStyle=orthogonalEdgeStyle;rounded=0;orthogonalLoop=1;jettySize=auto;html=1;endArrow=block;endFill=0;strokeColor=#000000;strokeWidth=1;exitX=1;exitY=0.5;exitDx=0;exitDy=0;entryX=0;entryY=0.5;entryDx=0;entryDy=0;" parent="1" source="CXJbbaDLJKEDGF4cZTQp-7" target="DqUX-duL37DNaFb8Gwn0-19" edge="1">
          <mxGeometry x="-0.0323" y="15" relative="1" as="geometry">
            <mxPoint x="621.5" y="542" as="sourcePoint" />
            <mxPoint x="659" y="886" as="targetPoint" />
            <mxPoint x="1" as="offset" />
          </mxGeometry>
        </mxCell>
        <mxCell id="CXJbbaDLJKEDGF4cZTQp-15" value="Yes" style="edgeStyle=orthogonalEdgeStyle;rounded=0;orthogonalLoop=1;jettySize=auto;html=1;endArrow=block;endFill=0;strokeColor=#000000;strokeWidth=1;exitX=0.5;exitY=1;exitDx=0;exitDy=0;entryX=0.5;entryY=0;entryDx=0;entryDy=0;" parent="1" source="CXJbbaDLJKEDGF4cZTQp-1" target="aLQe0wNo5wLi3Sxk2y81-41" edge="1">
          <mxGeometry y="20" relative="1" as="geometry">
            <mxPoint x="659" y="1869" as="targetPoint" />
            <mxPoint as="offset" />
            <mxPoint x="359" y="1909" as="sourcePoint" />
          </mxGeometry>
        </mxCell>
        <mxCell id="CXJbbaDLJKEDGF4cZTQp-16" value="Assign&lt;br&gt;&lt;b&gt;&lt;font color=&quot;#0000ff&quot;&gt;fw-latest-hex&lt;/font&gt;&lt;/b&gt;&lt;br&gt;-&amp;gt; &lt;font&gt;fw_latest_dat&lt;/font&gt;" style="rounded=0;whiteSpace=wrap;html=1;" parent="1" vertex="1">
          <mxGeometry x="259" y="621" width="120" height="60" as="geometry" />
        </mxCell>
        <mxCell id="CXJbbaDLJKEDGF4cZTQp-17" style="edgeStyle=orthogonalEdgeStyle;rounded=0;orthogonalLoop=1;jettySize=auto;html=1;endArrow=block;endFill=0;strokeColor=#000000;strokeWidth=1;exitX=0.5;exitY=1;exitDx=0;exitDy=0;entryX=0;entryY=0.5;entryDx=0;entryDy=0;" parent="1" source="CXJbbaDLJKEDGF4cZTQp-16" target="CXJbbaDLJKEDGF4cZTQp-6" edge="1">
          <mxGeometry relative="1" as="geometry">
            <mxPoint x="539" y="691" as="sourcePoint" />
            <mxPoint x="539" y="741" as="targetPoint" />
          </mxGeometry>
        </mxCell>
        <mxCell id="DqUX-duL37DNaFb8Gwn0-5" value="&lt;font style=&quot;font-size: 14px&quot;&gt;R&lt;/font&gt;" style="ellipse;whiteSpace=wrap;html=1;aspect=fixed;fillColor=#f8cecc;strokeColor=#b85450;" vertex="1" parent="1">
          <mxGeometry x="89" y="318" width="40" height="40" as="geometry" />
        </mxCell>
        <mxCell id="DqUX-duL37DNaFb8Gwn0-6" value="Increment retries counter, save file &amp;amp; reset master" style="rounded=0;whiteSpace=wrap;html=1;" vertex="1" parent="1">
          <mxGeometry x="49" y="398" width="120" height="60" as="geometry" />
        </mxCell>
        <mxCell id="DqUX-duL37DNaFb8Gwn0-9" value="" style="edgeStyle=orthogonalEdgeStyle;rounded=0;orthogonalLoop=1;jettySize=auto;html=1;endArrow=block;endFill=0;strokeColor=#000000;strokeWidth=1;entryX=0.5;entryY=0;entryDx=0;entryDy=0;exitX=0.5;exitY=1;exitDx=0;exitDy=0;" edge="1" parent="1" source="DqUX-duL37DNaFb8Gwn0-5" target="DqUX-duL37DNaFb8Gwn0-6">
          <mxGeometry x="-0.0256" y="20" relative="1" as="geometry">
            <mxPoint x="129" y="418" as="targetPoint" />
            <mxPoint as="offset" />
            <mxPoint x="89" y="378" as="sourcePoint" />
          </mxGeometry>
        </mxCell>
        <mxCell id="DqUX-duL37DNaFb8Gwn0-16" value="Yes" style="edgeStyle=orthogonalEdgeStyle;rounded=0;orthogonalLoop=1;jettySize=auto;html=1;endArrow=block;endFill=0;strokeColor=#000000;strokeWidth=1;exitX=1;exitY=0.5;exitDx=0;exitDy=0;entryX=0;entryY=0.5;entryDx=0;entryDy=0;" edge="1" parent="1" target="DqUX-duL37DNaFb8Gwn0-17" source="CXJbbaDLJKEDGF4cZTQp-2">
          <mxGeometry x="-0.0323" y="15" relative="1" as="geometry">
            <mxPoint x="611.5" y="651" as="sourcePoint" />
            <mxPoint x="639" y="700" as="targetPoint" />
            <mxPoint x="1" as="offset" />
          </mxGeometry>
        </mxCell>
        <mxCell id="DqUX-duL37DNaFb8Gwn0-17" value="&lt;font style=&quot;font-size: 14px&quot;&gt;R&lt;/font&gt;" style="ellipse;whiteSpace=wrap;html=1;aspect=fixed;fillColor=#f8cecc;strokeColor=#b85450;" vertex="1" parent="1">
          <mxGeometry x="699" y="631" width="40" height="40" as="geometry" />
        </mxCell>
        <mxCell id="DqUX-duL37DNaFb8Gwn0-19" value="&lt;font style=&quot;font-size: 14px&quot;&gt;R&lt;/font&gt;" style="ellipse;whiteSpace=wrap;html=1;aspect=fixed;fillColor=#f8cecc;strokeColor=#b85450;" vertex="1" parent="1">
          <mxGeometry x="699" y="866" width="40" height="40" as="geometry" />
        </mxCell>
        <mxCell id="DqUX-duL37DNaFb8Gwn0-20" value="&lt;font style=&quot;font-size: 14px&quot;&gt;R&lt;/font&gt;" style="ellipse;whiteSpace=wrap;html=1;aspect=fixed;fillColor=#f8cecc;strokeColor=#b85450;" vertex="1" parent="1">
          <mxGeometry x="699" y="1212" width="40" height="40" as="geometry" />
        </mxCell>
        <mxCell id="DqUX-duL37DNaFb8Gwn0-21" value="Power On Reset" style="rounded=1;whiteSpace=wrap;html=1;fillColor=#f8cecc;strokeColor=#b85450;" vertex="1" parent="1">
          <mxGeometry x="49" y="498" width="120" height="50" as="geometry" />
        </mxCell>
        <mxCell id="DqUX-duL37DNaFb8Gwn0-22" value="" style="edgeStyle=orthogonalEdgeStyle;rounded=0;orthogonalLoop=1;jettySize=auto;html=1;endArrow=block;endFill=0;strokeColor=#000000;strokeWidth=1;entryX=0.5;entryY=0;entryDx=0;entryDy=0;exitX=0.5;exitY=1;exitDx=0;exitDy=0;" edge="1" parent="1" source="DqUX-duL37DNaFb8Gwn0-6" target="DqUX-duL37DNaFb8Gwn0-21">
          <mxGeometry x="-0.0256" y="20" relative="1" as="geometry">
            <mxPoint x="209" y="507" as="targetPoint" />
            <mxPoint as="offset" />
            <mxPoint x="209" y="467" as="sourcePoint" />
          </mxGeometry>
        </mxCell>
        <mxCell id="DqUX-duL37DNaFb8Gwn0-24" value="&lt;font style=&quot;font-size: 14px&quot;&gt;R&lt;/font&gt;" style="ellipse;whiteSpace=wrap;html=1;aspect=fixed;fillColor=#f8cecc;strokeColor=#b85450;" vertex="1" parent="1">
          <mxGeometry x="699" y="1672" width="40" height="40" as="geometry" />
        </mxCell>
      </root>
    </mxGraphModel>
  </diagram>
</mxfile>
